<svg width="672" height="576" viewBox="0 0 672 576" fill="none" xmlns="http://www.w3.org/2000/svg">
<path d="M654.39 120.484V275.112H625.437V300.887H596.475V335.359H567.523V378.205H538.57V403.98H509.609V429.747H480.656V455.522H451.695V481.289H422.742V507.065H393.789V532.84H364.828V558.607H306.923V532.84H277.961V507.065H249.008V481.289H220.055V455.522H191.094V429.747H162.141V403.98H133.18V378.205H104.228V335.359H75.2743V300.887H46.3134V275.112H17.3601V120.484H46.3134V68.934H75.2743V43.1664H125.846V17.3912H220.055V43.1664H277.961V68.934H306.923V94.7092H364.828V68.934H393.789V43.1664H451.695V17.3912H545.904V43.1664H596.475V68.934H625.437V120.484H654.39Z" fill="#D82E2E"/>
<path d="M654.39 120.484V275.112H625.437V300.887H596.475V335.359H567.523V378.205H538.57V403.98H509.609V429.747H480.656V455.522H451.695V481.289H422.742V507.065H393.789V532.84H364.828V558.607H306.923V532.84H277.961V507.065H249.008V481.289H220.055V455.522H191.094V429.747H162.141V403.98H133.18V378.205H104.228V335.359H75.2743V300.887H46.3134V275.112H17.3601V120.484H46.3134V68.934H75.2743V43.1664H125.846V17.3912H220.055V43.1664H277.961V68.934H306.923V94.7092H364.828V68.934H393.789V43.1664H451.695V17.3912H545.904V43.1664H596.475V68.934H625.437V120.484H654.39Z" fill="#D82E2E"/>
<path d="M382.186 576H289.565V550.234H260.603V524.457H231.651V498.682H202.697V472.915H173.735V447.139H144.783V421.373H115.821V395.597H86.8676V352.752H57.9154V318.279H28.9534V292.504H0V103.092H28.9534V51.5417H57.9154V25.7752H108.487V0H237.412V25.7752H295.317V51.5417H324.279V77.3169H347.47V51.5417H376.432V25.7752H434.338V0H563.263V25.7752H613.834V51.5417H642.796V103.092H671.747V292.503H642.794V318.278H613.832V352.751H584.88V395.596H555.927V421.372H526.965V447.138H498.012V472.914H469.05V498.681H440.097V524.456H411.145V550.232H382.183V576H382.186ZM324.279 541.215H347.47V515.449H376.432V489.672H405.385V463.897H434.338V438.131H463.3V412.354H492.252V386.588H521.214V360.813H550.167V317.967H579.12V283.495H608.082V257.719H637.035V137.877H608.082V86.3266H579.12V60.5601H528.548V34.7849H469.055V60.5601H411.149V86.3266H382.187V112.102H289.566V86.3266H260.604V60.5601H202.698V34.7849H143.205V60.5601H92.6332V86.3266H63.6712V137.877H34.7178V257.719H63.6712V283.495H92.6332V317.967H121.585V360.813H150.539V386.588H179.501V412.354H208.453V438.131H237.415V463.897H266.368V489.672H295.321V515.449H324.283V541.215H324.279Z" fill="black"/>
<path d="M109.853 151.365H75.1372V236.126H109.853V151.365Z" fill="white"/>
<path d="M144.568 116.433H109.852V151.365H144.568V116.433Z" fill="white"/>
</svg>
