<svg width="1176" height="199" viewBox="0 0 1176 199" fill="none" xmlns="http://www.w3.org/2000/svg">
<path d="M287.561 59.8052C287.561 47.3162 288.178 34.8272 289.414 22.3383L317.411 22.9558C317.411 28.5827 317.342 35.3762 317.205 43.3362C317.068 51.2962 316.931 59.8052 316.793 68.8631C316.656 77.921 316.519 87.3221 316.382 97.0662C316.382 106.81 316.382 116.211 316.382 125.269C316.382 134.327 316.45 142.836 316.587 150.796C316.725 158.619 316.931 165.275 317.205 170.765C316.519 171.588 314.803 172 312.058 172C309.314 172.137 306.294 172.137 303.001 172C299.844 172 296.825 171.931 293.943 171.794C291.061 171.657 289.139 171.726 288.178 172C289.139 159.648 289.482 147.228 289.208 134.739C289.071 122.25 288.796 109.761 288.384 97.2721C287.973 84.7831 287.698 72.2941 287.561 59.8052ZM331.215 84.3027C332.038 81.6952 332.656 79.6365 333.068 78.1269C334.028 76.0683 335.538 74.2841 337.597 72.7745C339.792 71.2648 342.263 70.0296 345.008 69.069C347.89 67.971 350.909 67.2162 354.066 66.8045C357.359 66.3928 360.653 66.1869 363.947 66.1869C366.692 66.4614 369.299 66.53 371.77 66.3928C374.377 66.1183 377.122 66.1183 380.004 66.3928C384.396 66.6672 388.582 67.5593 392.562 69.069C396.542 70.4414 399.973 72.5 402.855 75.2448C404.776 76.48 406.286 78.47 407.384 81.2148C408.482 83.9596 409.305 87.1848 409.854 90.8903C410.403 94.4586 410.746 98.4386 410.884 102.83C411.021 107.085 411.158 111.477 411.295 116.006C411.158 119.986 410.952 124.514 410.678 129.592C410.54 134.67 410.197 139.542 409.648 144.209C409.237 148.875 408.619 153.061 407.796 156.766C407.109 160.472 406.08 163.011 404.708 164.383C402.375 167.677 399.287 170.01 395.444 171.382C391.738 172.755 387.69 173.578 383.298 173.853C378.906 174.264 374.377 174.264 369.711 173.853C365.045 173.578 360.79 173.441 356.948 173.441C349.948 172.206 344.047 169.187 339.244 164.383C335.538 161.089 332.999 156.972 331.627 152.031C330.254 147.091 329.431 141.944 329.156 136.592C328.882 131.102 328.813 125.612 328.95 120.123C329.225 114.633 329.156 109.624 328.745 105.095C328.745 102.624 328.813 100.223 328.95 97.8896C329.088 95.4193 329.362 92.8803 329.774 90.2728C329.911 88.7631 330.391 86.7731 331.215 84.3027ZM365.8 97.8896C362.918 98.7131 360.585 100.223 358.8 102.419C357.977 102.968 357.359 104.34 356.948 106.536C356.399 110.928 356.124 115.319 356.124 119.711C356.124 123.966 355.987 128.494 355.712 133.298C355.575 136.454 356.399 138.925 358.183 140.709C359.967 142.356 362.094 143.522 364.565 144.209C367.172 144.758 369.848 144.895 372.593 144.62C375.338 144.209 377.602 143.522 379.387 142.562C381.72 141.464 383.298 139.199 384.121 135.768C384.67 131.377 385.082 126.985 385.357 122.593C385.768 118.064 385.562 113.81 384.739 109.83C384.053 105.026 382.063 101.527 378.769 99.3307C375.475 97.1348 371.152 96.6545 365.8 97.8896ZM430.347 69.4807C435.288 69.069 439.954 69.1376 444.346 69.6865C445.306 74.6272 446.267 80.3227 447.228 86.7731C448.189 93.0862 449.218 99.5365 450.316 106.124C451.414 112.712 452.58 119.025 453.815 125.063C455.051 130.965 456.423 135.974 457.933 140.091C459.442 135.974 460.815 130.828 462.05 124.652C463.285 118.339 464.452 111.82 465.55 105.095C466.785 98.37 468.089 91.851 469.461 85.5379C470.833 79.2248 472.343 74.0096 473.99 69.8924C476.323 69.8924 478.519 69.8238 480.577 69.6865C482.636 69.5493 484.763 69.4121 486.959 69.2748C489.155 69.1376 491.42 69.069 493.753 69.069C496.086 69.069 498.693 69.1376 501.575 69.2748C498.693 77.0976 496.154 85.2634 493.959 93.7724C491.9 102.144 489.91 110.722 487.989 119.505C486.067 128.289 484.146 137.141 482.224 146.061C480.303 154.845 478.176 163.56 475.843 172.206C473.098 172.618 470.01 172.823 466.579 172.823C463.285 172.961 459.854 172.961 456.286 172.823C452.855 172.823 449.424 172.755 445.993 172.618C442.699 172.618 439.748 172.618 437.141 172.618C434.396 155.462 431.239 137.964 427.671 120.123C424.103 102.281 420.123 85.2634 415.731 69.069C420.672 69.6179 425.544 69.7552 430.347 69.4807ZM537.81 120.946C534.791 120.809 532.595 120.603 531.223 120.329V124.034C531.36 128.151 531.497 131.514 531.634 134.121C531.909 136.729 532.801 139.268 534.311 141.738C535.958 144.895 538.291 147.228 541.31 148.738C544.329 150.247 547.28 150.728 550.162 150.179C553.044 149.63 555.446 147.983 557.367 145.238C559.426 142.356 560.318 138.101 560.043 132.474C561.416 132.612 563.269 132.68 565.602 132.68C567.935 132.543 570.337 132.406 572.807 132.269C575.414 132.131 577.885 132.131 580.218 132.269C582.551 132.269 584.472 132.474 585.982 132.886C585.708 136.454 585.433 139.954 585.159 143.385C584.884 146.816 584.541 150.041 584.129 153.061C583.718 155.943 583.169 158.482 582.482 160.678C581.933 162.736 581.179 164.177 580.218 165.001C577.885 168.294 574.866 170.628 571.16 172C567.454 173.372 563.406 174.196 559.014 174.47C554.622 174.745 550.093 174.745 545.427 174.47C540.898 174.196 536.712 174.059 532.87 174.059C529.027 173.51 525.459 172.274 522.165 170.353C518.459 167.746 515.371 164.383 512.901 160.266C510.431 156.011 508.441 151.414 506.931 146.473C505.421 141.395 504.392 136.043 503.843 130.416C503.294 124.789 503.157 119.162 503.431 113.535C503.843 108.457 504.255 103.585 504.667 98.919C505.216 94.1155 506.313 89.4493 507.96 84.9203C509.744 80.9403 512.489 77.5779 516.195 74.8331C519.9 71.951 524.086 69.8238 528.752 68.4514C533.419 66.9417 538.359 66.1183 543.574 65.981C548.79 65.8438 553.868 66.3927 558.808 67.6279C565.121 68.7259 570.199 70.9217 574.042 74.2155C577.885 77.5093 580.767 81.4893 582.688 86.1555C584.747 90.8217 585.982 95.9683 586.394 101.595C586.806 107.222 586.806 112.918 586.394 118.682C585.433 118.956 583.58 119.231 580.836 119.505C578.228 119.78 575.071 120.054 571.366 120.329C567.798 120.603 563.955 120.809 559.838 120.946C555.72 121.083 551.74 121.152 547.898 121.152C544.192 121.152 540.83 121.083 537.81 120.946ZM561.896 93.9783C560.524 91.5079 558.602 89.6552 556.132 88.42C555.034 87.7338 553.936 87.2534 552.838 86.979C551.74 86.5672 550.437 86.3614 548.927 86.3614C545.633 86.3614 542.957 86.7045 540.898 87.3907C538.84 88.0769 537.193 89.0376 535.958 90.2728C534.722 91.5079 533.762 92.949 533.076 94.5959C532.527 96.2428 532.115 97.9583 531.84 99.7424C531.566 101.252 531.429 102.35 531.429 103.036C531.566 103.585 532.252 103.997 533.487 104.271C534.722 104.409 536.644 104.477 539.251 104.477C541.996 104.34 545.976 104.271 551.191 104.271C554.76 104.271 557.436 104.34 559.22 104.477C561.004 104.614 562.239 104.683 562.926 104.683C563.749 104.546 564.161 104.34 564.161 104.066C564.161 103.654 564.161 102.899 564.161 101.801C564.161 99.0562 563.406 96.4486 561.896 93.9783ZM621.871 172H621.46L598.197 171.794H597.58C597.305 170.284 597.099 168.363 596.962 166.03C596.962 163.697 596.962 161.364 596.962 159.031C597.099 156.698 597.168 154.502 597.168 152.443C597.305 150.384 597.374 148.875 597.374 147.914C598.746 147.365 600.667 146.953 603.138 146.679C605.745 146.404 608.353 146.267 610.961 146.267C613.568 146.267 615.97 146.404 618.166 146.679C620.499 146.816 622.146 147.091 623.106 147.502C623.106 147.64 623.038 148.806 622.901 151.002C622.763 153.061 622.626 155.462 622.489 158.207C622.352 160.952 622.214 163.628 622.077 166.236C621.94 168.843 621.871 170.628 621.871 171.588V171.794V172ZM668.283 120.946C665.264 120.809 663.068 120.603 661.696 120.329V124.034C661.833 128.151 661.97 131.514 662.108 134.121C662.382 136.729 663.274 139.268 664.784 141.738C666.431 144.895 668.764 147.228 671.783 148.738C674.802 150.247 677.753 150.728 680.635 150.179C683.517 149.63 685.919 147.983 687.84 145.238C689.899 142.356 690.791 138.101 690.517 132.474C691.889 132.612 693.742 132.68 696.075 132.68C698.408 132.543 700.81 132.406 703.28 132.269C705.888 132.131 708.358 132.131 710.691 132.269C713.024 132.269 714.946 132.474 716.455 132.886C716.181 136.454 715.906 139.954 715.632 143.385C715.357 146.816 715.014 150.041 714.602 153.061C714.191 155.943 713.642 158.482 712.956 160.678C712.407 162.736 711.652 164.177 710.691 165.001C708.358 168.294 705.339 170.628 701.633 172C697.928 173.372 693.879 174.196 689.487 174.47C685.096 174.745 680.567 174.745 675.9 174.47C671.371 174.196 667.186 174.059 663.343 174.059C659.5 173.51 655.932 172.274 652.638 170.353C648.932 167.746 645.845 164.383 643.374 160.266C640.904 156.011 638.914 151.414 637.404 146.473C635.895 141.395 634.865 136.043 634.316 130.416C633.767 124.789 633.63 119.162 633.905 113.535C634.316 108.457 634.728 103.585 635.14 98.919C635.689 94.1155 636.787 89.4493 638.433 84.9203C640.218 80.9403 642.962 77.5779 646.668 74.8331C650.373 71.951 654.559 69.8238 659.226 68.4514C663.892 66.9417 668.832 66.1183 674.048 65.981C679.263 65.8438 684.341 66.3927 689.281 67.6279C695.595 68.7259 700.672 70.9217 704.515 74.2155C708.358 77.5093 711.24 81.4893 713.161 86.1555C715.22 90.8217 716.455 95.9683 716.867 101.595C717.279 107.222 717.279 112.918 716.867 118.682C715.906 118.956 714.053 119.231 711.309 119.505C708.701 119.78 705.545 120.054 701.839 120.329C698.271 120.603 694.428 120.809 690.311 120.946C686.193 121.083 682.213 121.152 678.371 121.152C674.665 121.152 671.303 121.083 668.283 120.946ZM692.369 93.9783C690.997 91.5079 689.076 89.6552 686.605 88.42C685.507 87.7338 684.409 87.2534 683.311 86.979C682.213 86.5672 680.91 86.3614 679.4 86.3614C676.106 86.3614 673.43 86.7045 671.371 87.3907C669.313 88.0769 667.666 89.0376 666.431 90.2728C665.196 91.5079 664.235 92.949 663.549 94.5959C663 96.2428 662.588 97.9583 662.313 99.7424C662.039 101.252 661.902 102.35 661.902 103.036C662.039 103.585 662.725 103.997 663.96 104.271C665.196 104.409 667.117 104.477 669.725 104.477C672.469 104.34 676.449 104.271 681.665 104.271C685.233 104.271 687.909 104.34 689.693 104.477C691.477 104.614 692.712 104.683 693.399 104.683C694.222 104.546 694.634 104.34 694.634 104.066C694.634 103.654 694.634 102.899 694.634 101.801C694.634 99.0562 693.879 96.4486 692.369 93.9783ZM804.466 68.8631C804.466 69.0003 804.397 69.069 804.26 69.069C801.515 77.5779 798.359 86.2241 794.791 95.0076C791.36 103.654 788.889 112.437 787.38 121.358C788.889 129.592 791.222 138.101 794.379 146.885C797.535 155.668 800.074 164.04 801.996 172C801.31 171.863 800.692 171.794 800.143 171.794C799.594 171.794 798.976 171.794 798.29 171.794C796.781 171.794 795.134 171.863 793.35 172C791.565 172 789.85 172 788.203 172C787.654 172 786.556 172 784.909 172C783.4 172 781.753 172 779.969 172C778.322 171.863 776.675 171.794 775.028 171.794C773.518 171.657 772.557 171.52 772.146 171.382H771.94C770.842 169.049 769.881 166.51 769.058 163.766C768.372 160.883 767.685 158.001 766.999 155.119C766.313 152.237 765.558 149.424 764.735 146.679C764.049 143.797 763.156 141.189 762.059 138.856V138.65C759.588 144.14 757.735 149.904 756.5 155.943C755.265 161.844 753.481 167.265 751.148 172.206C750.599 172.206 749.638 172.206 748.266 172.206C746.893 172.206 745.384 172.206 743.737 172.206C742.09 172.343 740.512 172.412 739.002 172.412C737.63 172.412 736.669 172.412 736.12 172.412C733.924 172.412 731.316 172.343 728.297 172.206C725.415 172.206 723.082 171.863 721.298 171.177C722.259 167.608 723.425 163.766 724.797 159.648C726.307 155.394 727.817 151.139 729.326 146.885C730.836 142.493 732.277 138.101 733.65 133.71C735.022 129.318 736.189 125.132 737.149 121.152C735.502 112.643 732.963 103.997 729.532 95.2134C726.239 86.43 723.013 77.921 719.857 69.6865C726.033 69.2748 730.836 69.069 734.267 69.069C735.502 69.069 737.081 69.069 739.002 69.069C741.061 69.069 742.982 69.069 744.766 69.069C746.687 69.069 748.334 69.1376 749.707 69.2748C751.079 69.4121 751.834 69.5493 751.971 69.6865C752.52 71.7452 753.206 74.4214 754.03 77.7152C754.991 80.8717 755.883 84.1655 756.706 87.5965C757.667 90.8903 758.559 94.1155 759.382 97.2721C760.206 100.429 760.961 102.899 761.647 104.683C762.47 102.762 763.294 100.291 764.117 97.2721C765.078 94.1155 765.97 90.8217 766.793 87.3907C767.754 83.9596 768.577 80.6659 769.264 77.5093C770.087 74.2155 770.842 71.5393 771.528 69.4807C772.763 69.3434 774.616 69.2748 777.086 69.2748C779.694 69.1376 782.507 69.069 785.527 69.069C788.683 68.9317 791.909 68.8631 795.202 68.8631C798.496 68.8631 801.515 68.8631 804.26 68.8631H804.466ZM840.974 120.946C837.955 120.809 835.759 120.603 834.387 120.329V124.034C834.524 128.151 834.661 131.514 834.799 134.121C835.073 136.729 835.965 139.268 837.475 141.738C839.122 144.895 841.455 147.228 844.474 148.738C847.493 150.247 850.444 150.728 853.326 150.179C856.208 149.63 858.61 147.983 860.531 145.238C862.59 142.356 863.482 138.101 863.208 132.474C864.58 132.612 866.433 132.68 868.766 132.68C871.099 132.543 873.501 132.406 875.971 132.269C878.579 132.131 881.049 132.131 883.382 132.269C885.715 132.269 887.636 132.474 889.146 132.886C888.872 136.454 888.597 139.954 888.323 143.385C888.048 146.816 887.705 150.041 887.293 153.061C886.882 155.943 886.333 158.482 885.646 160.678C885.098 162.736 884.343 164.177 883.382 165.001C881.049 168.294 878.03 170.628 874.324 172C870.619 173.372 866.57 174.196 862.178 174.47C857.786 174.745 853.258 174.745 848.591 174.47C844.062 174.196 839.876 174.059 836.034 174.059C832.191 173.51 828.623 172.274 825.329 170.353C821.623 167.746 818.535 164.383 816.065 160.266C813.595 156.011 811.605 151.414 810.095 146.473C808.585 141.395 807.556 136.043 807.007 130.416C806.458 124.789 806.321 119.162 806.595 113.535C807.007 108.457 807.419 103.585 807.831 98.919C808.38 94.1155 809.478 89.4493 811.124 84.9203C812.909 80.9403 815.653 77.5779 819.359 74.8331C823.064 71.951 827.25 69.8238 831.916 68.4514C836.583 66.9417 841.523 66.1183 846.739 65.981C851.954 65.8438 857.032 66.3927 861.972 67.6279C868.285 68.7259 873.363 70.9217 877.206 74.2155C881.049 77.5093 883.931 81.4893 885.852 86.1555C887.911 90.8217 889.146 95.9683 889.558 101.595C889.97 107.222 889.97 112.918 889.558 118.682C888.597 118.956 886.744 119.231 884 119.505C881.392 119.78 878.235 120.054 874.53 120.329C870.962 120.603 867.119 120.809 863.002 120.946C858.884 121.083 854.904 121.152 851.062 121.152C847.356 121.152 843.994 121.083 840.974 120.946ZM865.06 93.9783C863.688 91.5079 861.766 89.6552 859.296 88.42C858.198 87.7338 857.1 87.2534 856.002 86.979C854.904 86.5672 853.601 86.3614 852.091 86.3614C848.797 86.3614 846.121 86.7045 844.062 87.3907C842.004 88.0769 840.357 89.0376 839.122 90.2728C837.886 91.5079 836.926 92.949 836.24 94.5959C835.691 96.2428 835.279 97.9583 835.004 99.7424C834.73 101.252 834.593 102.35 834.593 103.036C834.73 103.585 835.416 103.997 836.651 104.271C837.886 104.409 839.808 104.477 842.415 104.477C845.16 104.34 849.14 104.271 854.355 104.271C857.924 104.271 860.6 104.34 862.384 104.477C864.168 104.614 865.403 104.683 866.09 104.683C866.913 104.546 867.325 104.34 867.325 104.066C867.325 103.654 867.325 102.899 867.325 101.801C867.325 99.0562 866.57 96.4486 865.06 93.9783Z" fill="#FE00CF" fill-opacity="0.25"/>
<g filter="url(#filter1_d_11_189)">
<path d="M319.469 25.0145H323.587C323.587 31.3276 323.449 45.8752 323.175 68.6572C323.038 75.3821 322.901 84.2341 322.763 95.2134C322.626 106.193 322.557 119.025 322.557 133.71C322.557 152.649 322.832 166.579 323.381 175.5C322.283 176.598 320.773 177.352 318.852 177.764C316.931 178.176 314.46 178.382 311.441 178.382C307.461 178.382 304.442 178.313 302.383 178.176H302.589L297.648 177.97C294.629 177.97 292.09 178.313 290.031 178.999L290.237 174.059C288.59 174.059 287.149 174.333 285.914 174.882C286.875 161.432 287.355 149.012 287.355 137.621C287.355 129.249 287.081 116.417 286.532 99.1248C285.983 82.1069 285.708 69.1376 285.708 60.2169C285.708 45.8065 286.326 32.4941 287.561 20.2796L319.469 20.8972V25.0145ZM289.414 22.3383C288.178 35.5134 287.561 48.62 287.561 61.6579C287.561 73.4607 287.904 86.43 288.59 100.566C289.139 117.858 289.414 130.69 289.414 139.062C289.414 150.041 289.002 161.021 288.178 172C288.453 171.863 289.551 171.794 291.472 171.794C294.354 171.794 296.687 171.863 298.472 172L307.735 172.206C310.755 172.206 312.951 172.137 314.323 172C315.833 171.863 316.793 171.451 317.205 170.765C316.793 164.04 316.587 150.247 316.587 129.387C316.587 113.604 316.725 91.9883 316.999 64.54L317.411 22.9558L289.414 22.3383ZM331.215 77.3034C333.274 72.9117 337.322 69.6179 343.361 67.4221C349.537 65.2262 356.467 64.1283 364.153 64.1283C365.251 64.2655 367.79 64.3341 371.77 64.3341L376.71 64.1283C381.926 64.1283 387.004 64.9517 391.944 66.5986C396.885 68.2455 401.002 70.6472 404.296 73.8038H404.09C404.502 74.3528 405.119 75.1076 405.943 76.0683C406.766 76.8917 407.521 77.5093 408.207 77.921L408.001 77.7152C411.707 80.1855 414.177 85.1262 415.412 92.5372C416.785 99.9483 417.471 109.143 417.471 120.123C417.471 129.867 416.854 139.954 415.618 150.384C414.383 160.815 412.668 167.265 410.472 169.736C407.59 173.853 403.678 176.666 398.738 178.176C393.797 179.686 388.033 180.44 381.445 180.44C374.446 180.44 368.75 180.234 364.359 179.823C360.104 179.411 355.85 178.244 351.595 176.323C347.478 174.539 343.498 171.657 339.655 167.677L337.802 165.824C333.548 161.844 330.666 156.766 329.156 150.59C327.647 144.277 326.892 136.935 326.892 128.563V121.152L327.098 114.153C327.098 112.506 327.029 110.928 326.892 109.418C326.755 107.908 326.686 106.536 326.686 105.301C326.686 99.3993 326.823 94.939 327.098 91.9196C327.372 88.9003 328.401 85.2634 330.186 81.009H329.98C330.117 80.1855 330.254 79.3621 330.391 78.5386C330.666 77.7152 330.94 77.1662 331.215 76.8917V77.0976L331.009 77.7152L331.215 77.3034ZM328.95 113.741V128.975C328.95 141.052 330.94 151.071 334.92 159.031C339.038 166.853 346.38 171.657 356.948 173.441L366.623 173.647C371.289 173.921 374.926 174.059 377.534 174.059C383.984 174.059 389.474 173.372 394.003 172C398.532 170.628 402.1 168.089 404.708 164.383C407.041 162.05 408.55 156.835 409.237 148.738C410.06 140.64 410.746 129.73 411.295 116.006C411.295 114.77 411.158 110.379 410.884 102.83C410.609 95.1448 409.786 89.0376 408.413 84.5086C407.178 79.8424 405.325 76.7545 402.855 75.2448C396.679 69.2062 387.69 66.1869 375.887 66.1869L368.064 66.3928C366.28 66.3928 364.908 66.3241 363.947 66.1869C356.948 66.1869 350.497 67.2162 344.596 69.2748C338.695 71.3334 334.852 74.2841 333.068 78.1269C331.558 83.4793 330.46 88.2141 329.774 92.3314C329.088 96.4486 328.745 100.703 328.745 105.095L328.95 113.741ZM371.152 97.2721C380.759 97.2721 385.562 104.409 385.562 118.682C385.562 124.583 385.288 129.318 384.739 132.886C384.19 136.317 382.749 139.131 380.416 141.327C378.083 143.522 374.515 144.62 369.711 144.62C365.594 144.62 362.231 143.728 359.624 141.944C357.016 140.16 355.712 137.278 355.712 133.298C355.85 131.514 355.918 128.357 355.918 123.828C355.918 117.515 356.056 112.643 356.33 109.212C356.742 105.644 357.565 103.379 358.8 102.419C361.545 98.9876 365.662 97.2721 371.152 97.2721ZM364.153 108.183C363.055 108.869 362.369 112.026 362.094 117.652C361.957 123.142 361.888 129.798 361.888 137.621C361.888 139.817 362.575 141.189 363.947 141.738C365.319 142.287 367.241 142.562 369.711 142.562C378.083 142.562 382.269 139.68 382.269 133.916C383.092 126.504 383.504 121.152 383.504 117.858C383.504 113.329 382.955 109.83 381.857 107.359C380.896 104.889 378.563 103.654 374.858 103.654C374.034 103.654 372.525 103.791 370.329 104.066H370.535C367.927 104.752 365.937 105.987 364.565 107.771L364.153 108.183ZM450.522 73.3921C451.071 76.1369 452.443 84.5086 454.639 98.5072C456.423 110.173 458.001 119.642 459.374 126.916L463.285 107.565C466.579 89.0376 469.667 75.7938 472.549 67.8338C475.294 67.8338 479.136 67.6965 484.077 67.4221C489.018 67.1476 492.861 67.0103 495.605 67.0103H498.487C500.821 67.0103 502.811 67.1476 504.457 67.4221L503.016 71.1276C503.703 71.1276 505.555 71.2648 508.575 71.5393C505.006 81.009 501.987 90.4786 499.517 99.9483C497.184 109.418 494.507 121.495 491.488 136.18C490.939 138.513 489.704 144.14 487.783 153.061C485.861 161.981 483.803 170.353 481.607 178.176C477.49 178.862 472 179.205 465.138 179.205L451.345 178.999C448.463 178.862 444.483 178.793 439.405 178.793L438.787 174.676H435.288C428.7 133.641 421.221 97.5465 412.849 66.3928C417.103 67.079 420.534 67.4221 423.142 67.4221C426.299 67.4221 428.7 67.3534 430.347 67.2162C431.308 67.2162 433.298 67.2162 436.317 67.2162C439.474 67.2162 442.219 67.3534 444.552 67.6279L446.404 69.2748C446.404 70.3728 446.542 71.059 446.816 71.3334C447.091 71.6079 447.708 71.7452 448.669 71.7452L450.522 73.3921ZM424.377 69.4807H420.877C418.682 69.4807 416.966 69.3434 415.731 69.069C423.416 97.2034 430.553 131.72 437.141 172.618C441.395 172.618 444.757 172.686 447.228 172.823L460.609 173.029C466.922 173.029 472 172.755 475.843 172.206C478.862 161.089 482.087 147.228 485.518 130.622C488.4 116.76 491.008 105.232 493.341 96.0369C495.674 86.7045 498.419 77.7838 501.575 69.2748L495.194 69.069C492.449 69.069 488.743 69.2062 484.077 69.4807C479.685 69.7552 476.323 69.8924 473.99 69.8924C472.617 73.3234 471.382 77.5093 470.284 82.45C469.186 87.3907 468.157 92.3314 467.196 97.2721C466.236 102.076 465.618 105.232 465.344 106.742C462.462 123.485 459.991 134.602 457.933 140.091C456.149 135.151 454.502 128.838 452.992 121.152C451.62 113.467 450.041 104.066 448.257 92.949C447.296 86.2241 445.993 78.47 444.346 69.6865C440.777 69.4121 438.101 69.2748 436.317 69.2748L424.377 69.4807ZM537.399 130.416C537.399 133.984 537.604 136.935 538.016 139.268C538.565 141.464 539.594 143.866 541.104 146.473V146.885C542.888 147.846 545.084 148.326 547.692 148.326C550.574 148.326 552.976 147.022 554.897 144.414C556.818 141.67 557.779 137.621 557.779 132.269V130.21C560.798 130.484 563.063 130.622 564.572 130.622L571.778 130.416C573.287 130.279 575.62 130.21 578.777 130.21C581.11 130.21 584.198 130.553 588.041 131.239L587.835 134.739L592.158 135.357C592.158 150.179 590.511 160.815 587.217 167.265C584.061 173.716 579.943 177.558 574.866 178.793C569.925 180.166 562.308 180.852 552.015 180.852C543.78 180.852 537.193 180.234 532.252 178.999C527.449 177.901 523.331 175.294 519.9 171.177C513.587 165.961 508.921 158.482 505.902 148.738C502.882 138.993 501.373 128.426 501.373 117.035C501.373 103.722 502.951 92.8117 506.108 84.3027C508.99 77.7152 513.999 72.7059 521.136 69.2748C528.272 65.7065 536.232 63.9224 545.016 63.9224C555.583 63.9224 564.435 66.1869 571.572 70.7159C578.846 75.2448 584.198 81.3521 587.629 89.0376C591.197 96.5859 592.981 104.889 592.981 113.947C592.981 114.77 592.776 118.27 592.364 124.446C589.756 125.132 582.826 125.75 571.572 126.299C560.455 126.848 550.574 127.122 541.928 127.122C539.869 127.122 538.359 127.053 537.399 126.916V130.416ZM531.223 120.329C532.87 120.74 537.604 120.946 545.427 120.946C552.976 120.946 561.141 120.74 569.925 120.329C578.708 119.78 584.198 119.231 586.394 118.682C586.668 114.564 586.806 111.614 586.806 109.83C586.806 96.1055 583.718 85.4007 577.542 77.7152C571.503 69.8924 560.661 65.981 545.016 65.981C536.781 65.981 529.164 67.6965 522.165 71.1276C515.303 74.4214 510.568 79.019 507.96 84.9203C504.804 93.4293 503.226 104.82 503.226 119.093C503.226 133.367 505.627 145.718 510.431 156.149C515.234 166.579 522.714 172.549 532.87 174.059L541.928 174.264C546.594 174.539 550.231 174.676 552.838 174.676C559.289 174.676 564.778 173.99 569.307 172.618C573.973 171.245 577.61 168.706 580.218 165.001C582.002 163.491 583.237 160.334 583.923 155.531C584.61 150.59 585.296 143.042 585.982 132.886C583.923 132.474 581.247 132.269 577.953 132.269L569.925 132.474C568.278 132.612 566.013 132.68 563.131 132.68C561.484 132.68 560.455 132.612 560.043 132.474V134.121C560.043 139.474 558.808 143.522 556.338 146.267C554.005 149.012 551.123 150.384 547.692 150.384C537.124 150.384 531.634 141.601 531.223 124.034V120.329ZM564.161 104.066C564.161 104.477 563.68 104.683 562.72 104.683C562.033 104.683 560.661 104.614 558.602 104.477C556.544 104.34 554.073 104.271 551.191 104.271L537.81 104.477C535.203 104.477 533.487 104.34 532.664 104.066C531.84 103.791 531.429 103.173 531.429 102.213C531.429 91.6452 537.261 86.3614 548.927 86.3614C551.534 86.3614 553.936 87.0476 556.132 88.42C558.602 89.6552 560.524 91.5079 561.896 93.9783C563.406 96.4486 564.161 99.0562 564.161 101.801V104.066ZM559.22 94.1841C557.436 93.0862 555.377 92.5372 553.044 92.5372C548.241 92.5372 544.741 93.3607 542.545 95.0076C540.487 96.6545 539.046 99.1248 538.222 102.419L542.133 102.213H551.191L560.043 102.419L562.102 102.624V101.801C562.102 98.6445 561.21 96.1741 559.426 94.39L559.22 94.1841ZM599.226 173.853H595.727C595.178 170.422 594.903 166.236 594.903 161.295L595.109 152.031C595.246 150.659 595.315 148.875 595.315 146.679C599.158 145.032 604.51 144.209 611.372 144.209C616.587 144.209 620.979 145.032 624.547 146.679L624.959 149.561C625.371 149.698 625.988 149.836 626.812 149.973C627.635 150.11 628.184 150.522 628.459 151.208C628.871 151.757 629.076 152.786 629.076 154.296C629.076 156.903 628.871 160.883 628.459 166.236C628.047 171.451 627.704 175.431 627.43 178.176L599.844 177.97L599.226 173.853ZM621.871 171.588C621.871 169.667 622.077 165.344 622.489 158.619C622.901 151.894 623.106 148.189 623.106 147.502C621.322 146.679 617.411 146.267 611.372 146.267C604.373 146.267 599.707 146.816 597.374 147.914C597.374 149.561 597.305 151.002 597.168 152.237L596.962 162.324C596.962 167.128 597.168 170.284 597.58 171.794L598.197 172H621.871V171.588ZM667.872 130.416C667.872 133.984 668.078 136.935 668.489 139.268C669.038 141.464 670.068 143.866 671.577 146.473V146.885C673.361 147.846 675.557 148.326 678.165 148.326C681.047 148.326 683.449 147.022 685.37 144.414C687.291 141.67 688.252 137.621 688.252 132.269V130.21C691.271 130.484 693.536 130.622 695.046 130.622L702.251 130.416C703.76 130.279 706.093 130.21 709.25 130.21C711.583 130.21 714.671 130.553 718.514 131.239L718.308 134.739L722.631 135.357C722.631 150.179 720.984 160.815 717.69 167.265C714.534 173.716 710.417 177.558 705.339 178.793C700.398 180.166 692.781 180.852 682.488 180.852C674.253 180.852 667.666 180.234 662.725 178.999C657.922 177.901 653.805 175.294 650.373 171.177C644.06 165.961 639.394 158.482 636.375 148.738C633.356 138.993 631.846 128.426 631.846 117.035C631.846 103.722 633.424 92.8117 636.581 84.3027C639.463 77.7152 644.472 72.7059 651.609 69.2748C658.745 65.7065 666.705 63.9224 675.489 63.9224C686.056 63.9224 694.908 66.1869 702.045 70.7159C709.319 75.2448 714.671 81.3521 718.102 89.0376C721.67 96.5859 723.455 104.889 723.455 113.947C723.455 114.77 723.249 118.27 722.837 124.446C720.229 125.132 713.299 125.75 702.045 126.299C690.928 126.848 681.047 127.122 672.401 127.122C670.342 127.122 668.832 127.053 667.872 126.916V130.416ZM661.696 120.329C663.343 120.74 668.078 120.946 675.9 120.946C683.449 120.946 691.615 120.74 700.398 120.329C709.181 119.78 714.671 119.231 716.867 118.682C717.141 114.564 717.279 111.614 717.279 109.83C717.279 96.1055 714.191 85.4007 708.015 77.7152C701.976 69.8924 691.134 65.981 675.489 65.981C667.254 65.981 659.637 67.6965 652.638 71.1276C645.776 74.4214 641.041 79.019 638.433 84.9203C635.277 93.4293 633.699 104.82 633.699 119.093C633.699 133.367 636.1 145.718 640.904 156.149C645.707 166.579 653.187 172.549 663.343 174.059L672.401 174.264C677.067 174.539 680.704 174.676 683.311 174.676C689.762 174.676 695.251 173.99 699.78 172.618C704.447 171.245 708.083 168.706 710.691 165.001C712.475 163.491 713.71 160.334 714.397 155.531C715.083 150.59 715.769 143.042 716.455 132.886C714.397 132.474 711.72 132.269 708.427 132.269L700.398 132.474C698.751 132.612 696.487 132.68 693.605 132.68C691.958 132.68 690.928 132.612 690.517 132.474V134.121C690.517 139.474 689.281 143.522 686.811 146.267C684.478 149.012 681.596 150.384 678.165 150.384C667.597 150.384 662.108 141.601 661.696 124.034V120.329ZM694.634 104.066C694.634 104.477 694.153 104.683 693.193 104.683C692.507 104.683 691.134 104.614 689.076 104.477C687.017 104.34 684.547 104.271 681.665 104.271L668.283 104.477C665.676 104.477 663.96 104.34 663.137 104.066C662.313 103.791 661.902 103.173 661.902 102.213C661.902 91.6452 667.735 86.3614 679.4 86.3614C682.008 86.3614 684.409 87.0476 686.605 88.42C689.076 89.6552 690.997 91.5079 692.369 93.9783C693.879 96.4486 694.634 99.0562 694.634 101.801V104.066ZM689.693 94.1841C687.909 93.0862 685.85 92.5372 683.517 92.5372C678.714 92.5372 675.214 93.3607 673.018 95.0076C670.96 96.6545 669.519 99.1248 668.695 102.419L672.607 102.213H681.665L690.517 102.419L692.575 102.624V101.801C692.575 98.6445 691.683 96.1741 689.899 94.39L689.693 94.1841ZM810.642 70.9217C810.642 73.6665 810.367 75.1076 809.819 75.2448L804.26 90.6845L802.613 95.0076C798.084 107.634 795.065 117.79 793.555 125.475C795.202 133.435 797.947 143.317 801.79 155.119C804.946 164.589 807.28 172.412 808.789 178.588C805.907 178.176 803.78 177.97 802.407 177.97H797.467L792.32 178.176C781.89 178.176 775.989 177.901 774.616 177.352L772.969 173.647L770.499 173.235C769.126 170.353 767.823 166.304 766.587 161.089C766.313 160.129 765.558 157.59 764.323 153.472L762.676 159.854C761.166 167.402 759.108 173.578 756.5 178.382H748.06L740.237 178.588H738.796C735.091 178.588 732.071 178.45 729.738 178.176C727.405 178.039 725.141 177.49 722.945 176.529L723.562 173.647C721.915 173.51 720.337 173.098 718.827 172.412C719.925 167.334 722.67 158.619 727.062 146.267C727.748 144.346 728.983 140.709 730.767 135.357C732.552 130.004 733.993 125.269 735.091 121.152C733.718 115.113 732.003 109.143 729.944 103.242C728.023 97.2034 725.278 89.3807 721.71 79.7738L717.181 67.8338C722.807 67.2848 728.503 67.0103 734.267 67.0103C746.207 67.0103 752.726 67.5593 753.824 68.6572C754.099 70.1669 754.442 71.1276 754.853 71.5393C755.402 71.951 755.951 72.2255 756.5 72.3627C757.186 72.3627 757.667 72.5 757.941 72.7745C759.863 81.9696 761.578 88.8317 763.088 93.3607L769.881 67.6279C775.783 67.079 787.997 66.8045 806.525 66.8045C806.525 69.2748 806.319 70.6472 805.907 70.9217H810.642ZM795.202 68.8631C782.027 68.8631 774.136 69.069 771.528 69.4807C770.567 72.3627 769.195 77.3721 767.411 84.5086C764.941 94.5272 763.019 101.252 761.647 104.683C759.863 99.7424 757.461 91.2334 754.442 79.1562L751.971 69.6865C751.56 69.5493 750.667 69.4121 749.295 69.2748C748.06 69.1376 746.55 69.069 744.766 69.069H734.267C730.836 69.069 726.033 69.2748 719.857 69.6865C720.955 72.4314 721.915 74.9703 722.739 77.3034C726.307 86.0869 729.258 93.9783 731.591 100.978C734.061 107.84 735.914 114.564 737.149 121.152C735.228 128.563 732.277 138.033 728.297 149.561C724.454 160.815 722.121 168.02 721.298 171.177C723.356 172 726.17 172.412 729.738 172.412C733.444 172.412 735.571 172.412 736.12 172.412H739.002L748.266 172.206H751.148C752.795 168.912 754.579 163.422 756.5 155.737C756.775 154.639 757.392 152.237 758.353 148.532C759.451 144.826 760.686 141.532 762.059 138.65V138.856C763.294 141.601 764.392 144.826 765.352 148.532C766.313 152.1 766.862 154.296 766.999 155.119C768.921 162.805 770.567 168.226 771.94 171.382H772.146C772.969 171.794 777.224 172 784.909 172H788.203L798.29 171.794H800.143C801.104 171.794 801.721 171.863 801.996 172C801.172 168.569 800.006 164.589 798.496 160.06C797.124 155.394 796.163 152.169 795.614 150.384C791.634 138.17 788.889 128.494 787.38 121.358C788.34 116.006 789.644 110.79 791.291 105.712C792.938 100.497 795.202 94.0469 798.084 86.3614C798.771 84.44 799.663 82.0383 800.761 79.1562C801.859 76.2741 803.025 72.9117 804.26 69.069L804.466 68.8631H795.202ZM840.563 130.416C840.563 133.984 840.769 136.935 841.18 139.268C841.729 141.464 842.759 143.866 844.268 146.473V146.885C846.052 147.846 848.248 148.326 850.856 148.326C853.738 148.326 856.14 147.022 858.061 144.414C859.982 141.67 860.943 137.621 860.943 132.269V130.21C863.962 130.484 866.227 130.622 867.736 130.622L874.942 130.416C876.451 130.279 878.784 130.21 881.941 130.21C884.274 130.21 887.362 130.553 891.205 131.239L890.999 134.739L895.322 135.357C895.322 150.179 893.675 160.815 890.381 167.265C887.225 173.716 883.108 177.558 878.03 178.793C873.089 180.166 865.472 180.852 855.179 180.852C846.944 180.852 840.357 180.234 835.416 178.999C830.613 177.901 826.495 175.294 823.064 171.177C816.751 165.961 812.085 158.482 809.066 148.738C806.046 138.993 804.537 128.426 804.537 117.035C804.537 103.722 806.115 92.8117 809.272 84.3027C812.154 77.7152 817.163 72.7059 824.3 69.2748C831.436 65.7065 839.396 63.9224 848.18 63.9224C858.747 63.9224 867.599 66.1869 874.736 70.7159C882.01 75.2448 887.362 81.3521 890.793 89.0376C894.361 96.5859 896.145 104.889 896.145 113.947C896.145 114.77 895.94 118.27 895.528 124.446C892.92 125.132 885.99 125.75 874.736 126.299C863.619 126.848 853.738 127.122 845.092 127.122C843.033 127.122 841.523 127.053 840.563 126.916V130.416ZM834.387 120.329C836.034 120.74 840.769 120.946 848.591 120.946C856.14 120.946 864.305 120.74 873.089 120.329C881.872 119.78 887.362 119.231 889.558 118.682C889.832 114.564 889.97 111.614 889.97 109.83C889.97 96.1055 886.882 85.4007 880.706 77.7152C874.667 69.8924 863.825 65.981 848.18 65.981C839.945 65.981 832.328 67.6965 825.329 71.1276C818.467 74.4214 813.732 79.019 811.124 84.9203C807.968 93.4293 806.39 104.82 806.39 119.093C806.39 133.367 808.791 145.718 813.595 156.149C818.398 166.579 825.878 172.549 836.034 174.059L845.092 174.264C849.758 174.539 853.395 174.676 856.002 174.676C862.453 174.676 867.942 173.99 872.471 172.618C877.138 171.245 880.774 168.706 883.382 165.001C885.166 163.491 886.401 160.334 887.088 155.531C887.774 150.59 888.46 143.042 889.146 132.886C887.088 132.474 884.411 132.269 881.118 132.269L873.089 132.474C871.442 132.612 869.178 132.68 866.295 132.68C864.649 132.68 863.619 132.612 863.208 132.474V134.121C863.208 139.474 861.972 143.522 859.502 146.267C857.169 149.012 854.287 150.384 850.856 150.384C840.288 150.384 834.799 141.601 834.387 124.034V120.329ZM867.325 104.066C867.325 104.477 866.844 104.683 865.884 104.683C865.198 104.683 863.825 104.614 861.766 104.477C859.708 104.34 857.238 104.271 854.355 104.271L840.974 104.477C838.367 104.477 836.651 104.34 835.828 104.066C835.004 103.791 834.593 103.173 834.593 102.213C834.593 91.6452 840.425 86.3614 852.091 86.3614C854.699 86.3614 857.1 87.0476 859.296 88.42C861.766 89.6552 863.688 91.5079 865.06 93.9783C866.57 96.4486 867.325 99.0562 867.325 101.801V104.066ZM862.384 94.1841C860.6 93.0862 858.541 92.5372 856.208 92.5372C851.405 92.5372 847.905 93.3607 845.709 95.0076C843.651 96.6545 842.21 99.1248 841.386 102.419L845.298 102.213H854.355L863.208 102.419L865.266 102.624V101.801C865.266 98.6445 864.374 96.1741 862.59 94.39L862.384 94.1841Z" fill="black"/>
</g>
<defs>
<filter id="filter1_d_11_189" x="281.708" y="20.2797" width="618.438" height="168.572" filterUnits="userSpaceOnUse" color-interpolation-filters="sRGB">
<feFlood flood-opacity="0" result="BackgroundImageFix"/>
<feColorMatrix in="SourceAlpha" type="matrix" values="0 0 0 0 0 0 0 0 0 0 0 0 0 0 0 0 0 0 127 0" result="hardAlpha"/>
<feOffset dy="4"/>
<feGaussianBlur stdDeviation="2"/>
<feComposite in2="hardAlpha" operator="out"/>
<feColorMatrix type="matrix" values="0 0 0 0 0 0 0 0 0 0 0 0 0 0 0 0 0 0 0.25 0"/>
<feBlend mode="normal" in2="BackgroundImageFix" result="effect1_dropShadow_11_189"/>
<feBlend mode="normal" in="SourceGraphic" in2="effect1_dropShadow_11_189" result="shape"/>
</filter>
</defs>
</svg>
